<!DOCTYPE svg PUBLIC "-//W3C//DTD SVG 1.1//EN" "http://www.w3.org/Graphics/SVG/1.1/DTD/svg11.dtd">
<!-- Uploaded to: SVG Repo, www.svgrepo.com, Transformed by: SVG Repo Mixer Tools -->
<svg width="800px" height="800px" viewBox="0 0 64 64" xmlns="http://www.w3.org/2000/svg" xmlns:xlink="http://www.w3.org/1999/xlink" aria-hidden="true" role="img" class="iconify iconify--emojione" preserveAspectRatio="xMidYMid meet" fill="#000000">
<g id="SVGRepo_bgCarrier" stroke-width="0"/>
<g id="SVGRepo_tracerCarrier" stroke-linecap="round" stroke-linejoin="round"/>
<g id="SVGRepo_iconCarrier"> <g fill="#3e4347"> <path d="M17 62H5.8c0-2.6 2.5-4.7 5.6-4.7S17 59.4 17 62z"> </path> <path d="M58.2 62H47c0-2.6 2.5-4.7 5.6-4.7s5.6 2.1 5.6 4.7"> </path> <path d="M18.59 3.758l.636-.636l15.903 15.916l-.637.636z"> </path> <circle cx="19" cy="3.4" r="1.4"> </circle> <path d="M28.78 19.017l15.909-15.91l.636.637l-15.91 15.91z"> </path> <circle cx="45" cy="3.4" r="1.4"> </circle> <ellipse cx="32" cy="15.1" rx="8" ry="4.7"> </ellipse> </g> <path d="M59.1 57.1c-5.2 6.6-47.5 6.4-53.7 0c-4.6-4.7-4.6-32.5 0-37.2c6.2-6.4 48.5-6.6 53.7 0c3.9 5 3.9 32.3 0 37.2" fill="#319795"> </path> <g fill="#3e4347"> <path d="M49.5 52.7c-3.9 5-35.6 4.9-40.3 0c-3.4-3.6-3.4-24.7 0-28.2c4.7-4.9 36.4-5 40.3 0c2.9 3.7 2.9 24.5 0 28.2"> </path> <circle cx="56.4" cy="29.2" r="2.8"> </circle> <circle cx="56.4" cy="37.6" r="2.8"> </circle> </g> </g>
</svg>